<svg width="44" height="40" viewBox="0 0 44 40" fill="none" xmlns="http://www.w3.org/2000/svg">
<path d="M5.66667 8H8C9.23768 8 10.4247 7.50833 11.2998 6.63317C12.175 5.758 12.6667 4.57101 12.6667 3.33333C12.6667 2.71449 12.9125 2.121 13.3501 1.68342C13.7877 1.24583 14.3812 1 15 1H29C29.6188 1 30.2123 1.24583 30.6499 1.68342C31.0875 2.121 31.3333 2.71449 31.3333 3.33333C31.3333 4.57101 31.825 5.758 32.7002 6.63317C33.5753 7.50833 34.7623 8 36 8H38.3333C39.571 8 40.758 8.49166 41.6332 9.36683C42.5083 10.242 43 11.429 43 12.6667V33.6667C43 34.9043 42.5083 36.0913 41.6332 36.9665C40.758 37.8417 39.571 38.3333 38.3333 38.3333H5.66667C4.42899 38.3333 3.242 37.8417 2.36683 36.9665C1.49167 36.0913 1 34.9043 1 33.6667V12.6667C1 11.429 1.49167 10.242 2.36683 9.36683C3.242 8.49166 4.42899 8 5.66667 8" stroke="white" stroke-width="2" stroke-linecap="round" stroke-linejoin="round"/>
</svg>
