<svg width="123" height="236" viewBox="0 0 123 236" fill="none" xmlns="http://www.w3.org/2000/svg">
<path d="M9.88 18.16H4.06L3.06 21H0.68L5.66 7.08H8.3L13.28 21H10.88L9.88 18.16ZM9.24 16.3L6.98 9.84L4.7 16.3H9.24ZM14.6853 15.48C14.6853 14.3467 14.912 13.3533 15.3653 12.5C15.832 11.6333 16.472 10.9667 17.2853 10.5C18.0986 10.0333 19.032 9.8 20.0853 9.8C21.4186 9.8 22.5186 10.12 23.3853 10.76C24.2653 11.3867 24.8586 12.2867 25.1653 13.46H22.7053C22.5053 12.9133 22.1853 12.4867 21.7453 12.18C21.3053 11.8733 20.752 11.72 20.0853 11.72C19.152 11.72 18.4053 12.0533 17.8453 12.72C17.2986 13.3733 17.0253 14.2933 17.0253 15.48C17.0253 16.6667 17.2986 17.5933 17.8453 18.26C18.4053 18.9267 19.152 19.26 20.0853 19.26C21.4053 19.26 22.2786 18.68 22.7053 17.52H25.1653C24.8453 18.64 24.2453 19.5333 23.3653 20.2C22.4853 20.8533 21.392 21.18 20.0853 21.18C19.032 21.18 18.0986 20.9467 17.2853 20.48C16.472 20 15.832 19.3333 15.3653 18.48C14.912 17.6133 14.6853 16.6133 14.6853 15.48ZM26.6775 15.48C26.6775 14.3467 26.9042 13.3533 27.3575 12.5C27.8242 11.6333 28.4642 10.9667 29.2775 10.5C30.0908 10.0333 31.0242 9.8 32.0775 9.8C33.4108 9.8 34.5108 10.12 35.3775 10.76C36.2575 11.3867 36.8508 12.2867 37.1575 13.46H34.6975C34.4975 12.9133 34.1775 12.4867 33.7375 12.18C33.2975 11.8733 32.7442 11.72 32.0775 11.72C31.1442 11.72 30.3975 12.0533 29.8375 12.72C29.2908 13.3733 29.0175 14.2933 29.0175 15.48C29.0175 16.6667 29.2908 17.5933 29.8375 18.26C30.3975 18.9267 31.1442 19.26 32.0775 19.26C33.3975 19.26 34.2708 18.68 34.6975 17.52H37.1575C36.8375 18.64 36.2375 19.5333 35.3575 20.2C34.4775 20.8533 33.3842 21.18 32.0775 21.18C31.0242 21.18 30.0908 20.9467 29.2775 20.48C28.4642 20 27.8242 19.3333 27.3575 18.48C26.9042 17.6133 26.6775 16.6133 26.6775 15.48ZM44.2097 21.18C43.1697 21.18 42.2297 20.9467 41.3897 20.48C40.5497 20 39.8897 19.3333 39.4097 18.48C38.9297 17.6133 38.6897 16.6133 38.6897 15.48C38.6897 14.36 38.9364 13.3667 39.4297 12.5C39.923 11.6333 40.5964 10.9667 41.4497 10.5C42.303 10.0333 43.2564 9.8 44.3097 9.8C45.363 9.8 46.3164 10.0333 47.1697 10.5C48.023 10.9667 48.6964 11.6333 49.1897 12.5C49.683 13.3667 49.9297 14.36 49.9297 15.48C49.9297 16.6 49.6764 17.5933 49.1697 18.46C48.663 19.3267 47.9697 20 47.0897 20.48C46.223 20.9467 45.263 21.18 44.2097 21.18ZM44.2097 19.2C44.7964 19.2 45.343 19.06 45.8497 18.78C46.3697 18.5 46.7897 18.08 47.1097 17.52C47.4297 16.96 47.5897 16.28 47.5897 15.48C47.5897 14.68 47.4364 14.0067 47.1297 13.46C46.823 12.9 46.4164 12.48 45.9097 12.2C45.403 11.92 44.8564 11.78 44.2697 11.78C43.683 11.78 43.1364 11.92 42.6297 12.2C42.1364 12.48 41.743 12.9 41.4497 13.46C41.1564 14.0067 41.0097 14.68 41.0097 15.48C41.0097 16.6667 41.3097 17.5867 41.9097 18.24C42.523 18.88 43.2897 19.2 44.2097 19.2ZM62.1636 9.98V21H59.8836V19.7C59.5236 20.1533 59.0503 20.5133 58.4636 20.78C57.8903 21.0333 57.2769 21.16 56.6236 21.16C55.7569 21.16 54.9769 20.98 54.2836 20.62C53.6036 20.26 53.0636 19.7267 52.6636 19.02C52.2769 18.3133 52.0836 17.46 52.0836 16.46V9.98H54.3436V16.12C54.3436 17.1067 54.5903 17.8667 55.0836 18.4C55.5769 18.92 56.2503 19.18 57.1036 19.18C57.9569 19.18 58.6303 18.92 59.1236 18.4C59.6303 17.8667 59.8836 17.1067 59.8836 16.12V9.98H62.1636ZM70.7319 9.8C71.5985 9.8 72.3719 9.98 73.0519 10.34C73.7452 10.7 74.2852 11.2333 74.6719 11.94C75.0585 12.6467 75.2519 13.5 75.2519 14.5V21H72.9919V14.84C72.9919 13.8533 72.7452 13.1 72.2519 12.58C71.7585 12.0467 71.0852 11.78 70.2319 11.78C69.3785 11.78 68.6985 12.0467 68.1919 12.58C67.6985 13.1 67.4519 13.8533 67.4519 14.84V21H65.1719V9.98H67.4519V11.24C67.8252 10.7867 68.2985 10.4333 68.8719 10.18C69.4585 9.92667 70.0785 9.8 70.7319 9.8ZM80.8202 11.84V17.94C80.8202 18.3533 80.9135 18.6533 81.1002 18.84C81.3002 19.0133 81.6335 19.1 82.1002 19.1H83.5002V21H81.7002C80.6735 21 79.8868 20.76 79.3402 20.28C78.7935 19.8 78.5202 19.02 78.5202 17.94V11.84H77.2202V9.98H78.5202V7.24H80.8202V9.98H83.5002V11.84H80.8202Z" fill="#FAFAFA"/>
<path d="M12.544 58.928V70H11.088V61.744L7.408 70H6.384L2.688 61.728V70H1.232V58.928H2.8L6.896 68.08L10.992 58.928H12.544ZM22.5653 61.232L17.2853 74.128H15.7812L17.5093 69.904L13.9733 61.232H15.5893L18.3413 68.336L21.0613 61.232H22.5653ZM34.8865 67.52H30.0225L29.1265 70H27.5905L31.6225 58.912H33.3025L37.3185 70H35.7825L34.8865 67.52ZM34.4705 66.336L32.4545 60.704L30.4385 66.336H34.4705ZM38.5318 65.6C38.5318 64.6933 38.7131 63.904 39.0758 63.232C39.4384 62.5493 39.9398 62.0213 40.5798 61.648C41.2304 61.2747 41.9718 61.088 42.8038 61.088C43.8811 61.088 44.7664 61.3493 45.4598 61.872C46.1638 62.3947 46.6278 63.12 46.8518 64.048H45.2838C45.1344 63.5147 44.8411 63.0933 44.4038 62.784C43.9771 62.4747 43.4438 62.32 42.8038 62.32C41.9718 62.32 41.2998 62.608 40.7878 63.184C40.2758 63.7493 40.0198 64.5547 40.0198 65.6C40.0198 66.656 40.2758 67.472 40.7878 68.048C41.2998 68.624 41.9718 68.912 42.8038 68.912C43.4438 68.912 43.9771 68.7627 44.4038 68.464C44.8304 68.1653 45.1238 67.7387 45.2838 67.184H46.8518C46.6171 68.08 46.1478 68.8 45.4438 69.344C44.7398 69.8773 43.8598 70.144 42.8038 70.144C41.9718 70.144 41.2304 69.9573 40.5798 69.584C39.9398 69.2107 39.4384 68.6827 39.0758 68C38.7131 67.3173 38.5318 66.5173 38.5318 65.6ZM48.2505 65.6C48.2505 64.6933 48.4318 63.904 48.7945 63.232C49.1572 62.5493 49.6585 62.0213 50.2985 61.648C50.9492 61.2747 51.6905 61.088 52.5225 61.088C53.5998 61.088 54.4852 61.3493 55.1785 61.872C55.8825 62.3947 56.3465 63.12 56.5705 64.048H55.0025C54.8532 63.5147 54.5598 63.0933 54.1225 62.784C53.6958 62.4747 53.1625 62.32 52.5225 62.32C51.6905 62.32 51.0185 62.608 50.5065 63.184C49.9945 63.7493 49.7385 64.5547 49.7385 65.6C49.7385 66.656 49.9945 67.472 50.5065 68.048C51.0185 68.624 51.6905 68.912 52.5225 68.912C53.1625 68.912 53.6958 68.7627 54.1225 68.464C54.5492 68.1653 54.8425 67.7387 55.0025 67.184H56.5705C56.3358 68.08 55.8665 68.8 55.1625 69.344C54.4585 69.8773 53.5785 70.144 52.5225 70.144C51.6905 70.144 50.9492 69.9573 50.2985 69.584C49.6585 69.2107 49.1572 68.6827 48.7945 68C48.4318 67.3173 48.2505 66.5173 48.2505 65.6ZM62.3373 70.144C61.5159 70.144 60.7693 69.9573 60.0973 69.584C59.4359 69.2107 58.9133 68.6827 58.5293 68C58.1559 67.3067 57.9693 66.5067 57.9693 65.6C57.9693 64.704 58.1613 63.9147 58.5453 63.232C58.9399 62.5387 59.4733 62.0107 60.1453 61.648C60.8173 61.2747 61.5693 61.088 62.4013 61.088C63.2333 61.088 63.9853 61.2747 64.6573 61.648C65.3293 62.0107 65.8573 62.5333 66.2413 63.216C66.6359 63.8987 66.8333 64.6933 66.8333 65.6C66.8333 66.5067 66.6306 67.3067 66.2253 68C65.8306 68.6827 65.2919 69.2107 64.6093 69.584C63.9266 69.9573 63.1693 70.144 62.3373 70.144ZM62.3373 68.864C62.8599 68.864 63.3506 68.7413 63.8093 68.496C64.2679 68.2507 64.6359 67.8827 64.9133 67.392C65.2013 66.9013 65.3453 66.304 65.3453 65.6C65.3453 64.896 65.2066 64.2987 64.9293 63.808C64.6519 63.3173 64.2893 62.9547 63.8413 62.72C63.3933 62.4747 62.9079 62.352 62.3853 62.352C61.8519 62.352 61.3613 62.4747 60.9133 62.72C60.4759 62.9547 60.1239 63.3173 59.8573 63.808C59.5906 64.2987 59.4573 64.896 59.4573 65.6C59.4573 66.3147 59.5853 66.9173 59.8413 67.408C60.1079 67.8987 60.4599 68.2667 60.8973 68.512C61.3346 68.7467 61.8146 68.864 62.3373 68.864ZM76.5236 61.232V70H75.0676V68.704C74.7903 69.152 74.401 69.504 73.8996 69.76C73.409 70.0053 72.865 70.128 72.2676 70.128C71.585 70.128 70.9716 69.9893 70.4276 69.712C69.8836 69.424 69.4516 68.9973 69.1316 68.432C68.8223 67.8667 68.6676 67.1787 68.6676 66.368V61.232H70.1076V66.176C70.1076 67.04 70.3263 67.7067 70.7636 68.176C71.201 68.6347 71.7983 68.864 72.5556 68.864C73.3343 68.864 73.9476 68.624 74.3956 68.144C74.8436 67.664 75.0676 66.9653 75.0676 66.048V61.232H76.5236ZM83.254 61.072C84.3207 61.072 85.1847 61.3973 85.846 62.048C86.5073 62.688 86.838 63.616 86.838 64.832V70H85.398V65.04C85.398 64.1653 85.1793 63.4987 84.742 63.04C84.3047 62.5707 83.7073 62.336 82.95 62.336C82.182 62.336 81.5687 62.576 81.11 63.056C80.662 63.536 80.438 64.2347 80.438 65.152V70H78.982V61.232H80.438V62.48C80.726 62.032 81.1153 61.6853 81.606 61.44C82.1073 61.1947 82.6567 61.072 83.254 61.072ZM90.9924 62.432V67.6C90.9924 68.0267 91.083 68.3307 91.2644 68.512C91.4457 68.6827 91.7604 68.768 92.2084 68.768H93.2804V70H91.9684C91.1577 70 90.5497 69.8133 90.1444 69.44C89.739 69.0667 89.5364 68.4533 89.5364 67.6V62.432H88.4004V61.232H89.5364V59.024H90.9924V61.232H93.2804V62.432H90.9924Z" fill="#FAFAFA"/>
<path d="M2.688 108.816H6.592V110H1.232V98.848H2.688V108.816ZM11.9623 110.144C11.1409 110.144 10.3943 109.957 9.72225 109.584C9.06092 109.211 8.53825 108.683 8.15425 108C7.78092 107.307 7.59425 106.507 7.59425 105.6C7.59425 104.704 7.78625 103.915 8.17025 103.232C8.56492 102.539 9.09825 102.011 9.77025 101.648C10.4423 101.275 11.1943 101.088 12.0263 101.088C12.8583 101.088 13.6103 101.275 14.2823 101.648C14.9543 102.011 15.4823 102.533 15.8663 103.216C16.2609 103.899 16.4583 104.693 16.4583 105.6C16.4583 106.507 16.2556 107.307 15.8503 108C15.4556 108.683 14.9169 109.211 14.2343 109.584C13.5516 109.957 12.7943 110.144 11.9623 110.144ZM11.9623 108.864C12.4849 108.864 12.9756 108.741 13.4343 108.496C13.8929 108.251 14.2609 107.883 14.5383 107.392C14.8263 106.901 14.9703 106.304 14.9703 105.6C14.9703 104.896 14.8316 104.299 14.5543 103.808C14.2769 103.317 13.9143 102.955 13.4663 102.72C13.0183 102.475 12.5329 102.352 12.0103 102.352C11.4769 102.352 10.9863 102.475 10.5383 102.72C10.1009 102.955 9.74892 103.317 9.48225 103.808C9.21558 104.299 9.08225 104.896 9.08225 105.6C9.08225 106.315 9.21025 106.917 9.46625 107.408C9.73292 107.899 10.0849 108.267 10.5223 108.512C10.9596 108.747 11.4396 108.864 11.9623 108.864ZM21.9886 101.088C22.746 101.088 23.4073 101.253 23.9726 101.584C24.5486 101.915 24.9753 102.331 25.2526 102.832V101.232H26.7246V110.192C26.7246 110.992 26.554 111.701 26.2126 112.32C25.8713 112.949 25.3806 113.44 24.7406 113.792C24.1113 114.144 23.3753 114.32 22.5326 114.32C21.3806 114.32 20.4206 114.048 19.6526 113.504C18.8846 112.96 18.4313 112.219 18.2926 111.28H19.7326C19.8926 111.813 20.2233 112.24 20.7246 112.56C21.226 112.891 21.8286 113.056 22.5326 113.056C23.3326 113.056 23.9833 112.805 24.4846 112.304C24.9966 111.803 25.2526 111.099 25.2526 110.192V108.352C24.9646 108.864 24.538 109.291 23.9726 109.632C23.4073 109.973 22.746 110.144 21.9886 110.144C21.21 110.144 20.5006 109.952 19.8606 109.568C19.2313 109.184 18.7353 108.645 18.3726 107.952C18.01 107.259 17.8286 106.469 17.8286 105.584C17.8286 104.688 18.01 103.904 18.3726 103.232C18.7353 102.549 19.2313 102.021 19.8606 101.648C20.5006 101.275 21.21 101.088 21.9886 101.088ZM25.2526 105.6C25.2526 104.939 25.1193 104.363 24.8526 103.872C24.586 103.381 24.2233 103.008 23.7646 102.752C23.3166 102.485 22.8206 102.352 22.2766 102.352C21.7326 102.352 21.2366 102.48 20.7886 102.736C20.3406 102.992 19.9833 103.365 19.7166 103.856C19.45 104.347 19.3166 104.923 19.3166 105.584C19.3166 106.256 19.45 106.843 19.7166 107.344C19.9833 107.835 20.3406 108.213 20.7886 108.48C21.2366 108.736 21.7326 108.864 22.2766 108.864C22.8206 108.864 23.3166 108.736 23.7646 108.48C24.2233 108.213 24.586 107.835 24.8526 107.344C25.1193 106.843 25.2526 106.261 25.2526 105.6ZM29.9371 99.808C29.6598 99.808 29.4251 99.712 29.2331 99.52C29.0411 99.328 28.9451 99.0933 28.9451 98.816C28.9451 98.5387 29.0411 98.304 29.2331 98.112C29.4251 97.92 29.6598 97.824 29.9371 97.824C30.2038 97.824 30.4278 97.92 30.6091 98.112C30.8011 98.304 30.8971 98.5387 30.8971 98.816C30.8971 99.0933 30.8011 99.328 30.6091 99.52C30.4278 99.712 30.2038 99.808 29.9371 99.808ZM30.6411 101.232V110H29.1851V101.232H30.6411ZM37.3946 101.072C38.4613 101.072 39.3253 101.397 39.9866 102.048C40.648 102.688 40.9786 103.616 40.9786 104.832V110H39.5386V105.04C39.5386 104.165 39.32 103.499 38.8826 103.04C38.4453 102.571 37.848 102.336 37.0906 102.336C36.3226 102.336 35.7093 102.576 35.2506 103.056C34.8026 103.536 34.5786 104.235 34.5786 105.152V110H33.1226V101.232H34.5786V102.48C34.8666 102.032 35.256 101.685 35.7466 101.44C36.248 101.195 36.7973 101.072 37.3946 101.072ZM53.0626 94.928L48.6786 112.72H47.2386L51.6066 94.928H53.0626ZM65.3696 110L62.7136 105.44H60.9536V110H59.4976V98.848H63.0976C63.9403 98.848 64.6496 98.992 65.2256 99.28C65.8123 99.568 66.2496 99.9573 66.5376 100.448C66.8256 100.939 66.9696 101.499 66.9696 102.128C66.9696 102.896 66.7456 103.573 66.2976 104.16C65.8603 104.747 65.199 105.136 64.3136 105.328L67.1136 110H65.3696ZM60.9536 104.272H63.0976C63.887 104.272 64.479 104.08 64.8736 103.696C65.2683 103.301 65.4656 102.779 65.4656 102.128C65.4656 101.467 65.2683 100.955 64.8736 100.592C64.4896 100.229 63.8976 100.048 63.0976 100.048H60.9536V104.272ZM77.232 105.28C77.232 105.557 77.216 105.851 77.184 106.16H70.176C70.2293 107.024 70.5227 107.701 71.056 108.192C71.6 108.672 72.256 108.912 73.024 108.912C73.6533 108.912 74.176 108.768 74.592 108.48C75.0187 108.181 75.3173 107.787 75.488 107.296H77.056C76.8213 108.139 76.352 108.827 75.648 109.36C74.944 109.883 74.0693 110.144 73.024 110.144C72.192 110.144 71.4453 109.957 70.784 109.584C70.1333 109.211 69.6213 108.683 69.248 108C68.8747 107.307 68.688 106.507 68.688 105.6C68.688 104.693 68.8693 103.899 69.232 103.216C69.5947 102.533 70.1013 102.011 70.752 101.648C71.4133 101.275 72.1707 101.088 73.024 101.088C73.856 101.088 74.592 101.269 75.232 101.632C75.872 101.995 76.3627 102.496 76.704 103.136C77.056 103.765 77.232 104.48 77.232 105.28ZM75.728 104.976C75.728 104.421 75.6053 103.947 75.36 103.552C75.1147 103.147 74.7787 102.843 74.352 102.64C73.936 102.427 73.472 102.32 72.96 102.32C72.224 102.32 71.5947 102.555 71.072 103.024C70.56 103.493 70.2667 104.144 70.192 104.976H75.728ZM82.7699 101.088C83.5272 101.088 84.1885 101.253 84.7539 101.584C85.3299 101.915 85.7565 102.331 86.0339 102.832V101.232H87.5059V110.192C87.5059 110.992 87.3352 111.701 86.9939 112.32C86.6525 112.949 86.1619 113.44 85.5219 113.792C84.8925 114.144 84.1565 114.32 83.3139 114.32C82.1619 114.32 81.2019 114.048 80.4339 113.504C79.6659 112.96 79.2125 112.219 79.0739 111.28H80.5139C80.6739 111.813 81.0045 112.24 81.5059 112.56C82.0072 112.891 82.6099 113.056 83.3139 113.056C84.1139 113.056 84.7645 112.805 85.2659 112.304C85.7779 111.803 86.0339 111.099 86.0339 110.192V108.352C85.7459 108.864 85.3192 109.291 84.7539 109.632C84.1885 109.973 83.5272 110.144 82.7699 110.144C81.9912 110.144 81.2819 109.952 80.6419 109.568C80.0125 109.184 79.5165 108.645 79.1539 107.952C78.7912 107.259 78.6099 106.469 78.6099 105.584C78.6099 104.688 78.7912 103.904 79.1539 103.232C79.5165 102.549 80.0125 102.021 80.6419 101.648C81.2819 101.275 81.9912 101.088 82.7699 101.088ZM86.0339 105.6C86.0339 104.939 85.9005 104.363 85.6339 103.872C85.3672 103.381 85.0045 103.008 84.5459 102.752C84.0979 102.485 83.6019 102.352 83.0579 102.352C82.5139 102.352 82.0179 102.48 81.5699 102.736C81.1219 102.992 80.7645 103.365 80.4979 103.856C80.2312 104.347 80.0979 104.923 80.0979 105.584C80.0979 106.256 80.2312 106.843 80.4979 107.344C80.7645 107.835 81.1219 108.213 81.5699 108.48C82.0179 108.736 82.5139 108.864 83.0579 108.864C83.6019 108.864 84.0979 108.736 84.5459 108.48C85.0045 108.213 85.3672 107.835 85.6339 107.344C85.9005 106.843 86.0339 106.261 86.0339 105.6ZM90.7184 99.808C90.441 99.808 90.2064 99.712 90.0144 99.52C89.8224 99.328 89.7264 99.0933 89.7264 98.816C89.7264 98.5387 89.8224 98.304 90.0144 98.112C90.2064 97.92 90.441 97.824 90.7184 97.824C90.985 97.824 91.209 97.92 91.3904 98.112C91.5824 98.304 91.6784 98.5387 91.6784 98.816C91.6784 99.0933 91.5824 99.328 91.3904 99.52C91.209 99.712 90.985 99.808 90.7184 99.808ZM91.4224 101.232V110H89.9664V101.232H91.4224ZM97.0079 110.144C96.3359 110.144 95.7332 110.032 95.1999 109.808C94.6665 109.573 94.2452 109.253 93.9359 108.848C93.6265 108.432 93.4559 107.957 93.4239 107.424H94.9279C94.9705 107.861 95.1732 108.219 95.5359 108.496C95.9092 108.773 96.3945 108.912 96.9919 108.912C97.5465 108.912 97.9839 108.789 98.3039 108.544C98.6239 108.299 98.7839 107.989 98.7839 107.616C98.7839 107.232 98.6132 106.949 98.2719 106.768C97.9305 106.576 97.4025 106.389 96.6879 106.208C96.0372 106.037 95.5039 105.867 95.0879 105.696C94.6825 105.515 94.3305 105.253 94.0319 104.912C93.7439 104.56 93.5999 104.101 93.5999 103.536C93.5999 103.088 93.7332 102.677 93.9999 102.304C94.2665 101.931 94.6452 101.637 95.1359 101.424C95.6265 101.2 96.1865 101.088 96.8159 101.088C97.7865 101.088 98.5705 101.333 99.1679 101.824C99.7652 102.315 100.085 102.987 100.128 103.84H98.6719C98.6399 103.381 98.4532 103.013 98.1119 102.736C97.7812 102.459 97.3332 102.32 96.7679 102.32C96.2452 102.32 95.8292 102.432 95.5199 102.656C95.2105 102.88 95.0559 103.173 95.0559 103.536C95.0559 103.824 95.1465 104.064 95.3279 104.256C95.5199 104.437 95.7545 104.587 96.0319 104.704C96.3199 104.811 96.7145 104.933 97.2159 105.072C97.8452 105.243 98.3572 105.413 98.7519 105.584C99.1465 105.744 99.4825 105.989 99.7599 106.32C100.048 106.651 100.197 107.083 100.208 107.616C100.208 108.096 100.075 108.528 99.8079 108.912C99.5412 109.296 99.1625 109.6 98.6719 109.824C98.1919 110.037 97.6372 110.144 97.0079 110.144ZM104.039 102.432V107.6C104.039 108.027 104.13 108.331 104.311 108.512C104.493 108.683 104.807 108.768 105.255 108.768H106.327V110H105.015C104.205 110 103.597 109.813 103.191 109.44C102.786 109.067 102.583 108.453 102.583 107.6V102.432H101.447V101.232H102.583V99.024H104.039V101.232H106.327V102.432H104.039ZM116.091 105.28C116.091 105.557 116.075 105.851 116.043 106.16H109.035C109.089 107.024 109.382 107.701 109.915 108.192C110.459 108.672 111.115 108.912 111.883 108.912C112.513 108.912 113.035 108.768 113.451 108.48C113.878 108.181 114.177 107.787 114.347 107.296H115.915C115.681 108.139 115.211 108.827 114.507 109.36C113.803 109.883 112.929 110.144 111.883 110.144C111.051 110.144 110.305 109.957 109.643 109.584C108.993 109.211 108.481 108.683 108.107 108C107.734 107.307 107.547 106.507 107.547 105.6C107.547 104.693 107.729 103.899 108.091 103.216C108.454 102.533 108.961 102.011 109.611 101.648C110.273 101.275 111.03 101.088 111.883 101.088C112.715 101.088 113.451 101.269 114.091 101.632C114.731 101.995 115.222 102.496 115.563 103.136C115.915 103.765 116.091 104.48 116.091 105.28ZM114.587 104.976C114.587 104.421 114.465 103.947 114.219 103.552C113.974 103.147 113.638 102.843 113.211 102.64C112.795 102.427 112.331 102.32 111.819 102.32C111.083 102.32 110.454 102.555 109.931 103.024C109.419 103.493 109.126 104.144 109.051 104.976H114.587ZM119.469 102.656C119.725 102.155 120.088 101.765 120.557 101.488C121.037 101.211 121.619 101.072 122.301 101.072V102.576H121.917C120.285 102.576 119.469 103.461 119.469 105.232V110H118.013V101.232H119.469V102.656Z" fill="#FAFAFA"/>
<path d="M0.688 144.416C0.688 143.328 0.933333 142.352 1.424 141.488C1.91467 140.613 2.58133 139.931 3.424 139.44C4.27733 138.949 5.22133 138.704 6.256 138.704C7.472 138.704 8.53333 138.997 9.44 139.584C10.3467 140.171 11.008 141.003 11.424 142.08H9.68C9.37067 141.408 8.92267 140.891 8.336 140.528C7.76 140.165 7.06667 139.984 6.256 139.984C5.47733 139.984 4.77867 140.165 4.16 140.528C3.54133 140.891 3.056 141.408 2.704 142.08C2.352 142.741 2.176 143.52 2.176 144.416C2.176 145.301 2.352 146.08 2.704 146.752C3.056 147.413 3.54133 147.925 4.16 148.288C4.77867 148.651 5.47733 148.832 6.256 148.832C7.06667 148.832 7.76 148.656 8.336 148.304C8.92267 147.941 9.37067 147.424 9.68 146.752H11.424C11.008 147.819 10.3467 148.645 9.44 149.232C8.53333 149.808 7.472 150.096 6.256 150.096C5.22133 150.096 4.27733 149.856 3.424 149.376C2.58133 148.885 1.91467 148.208 1.424 147.344C0.933333 146.48 0.688 145.504 0.688 144.416ZM13.0474 145.584C13.0474 144.688 13.2287 143.904 13.5914 143.232C13.954 142.549 14.45 142.021 15.0794 141.648C15.7194 141.275 16.4287 141.088 17.2074 141.088C17.9754 141.088 18.642 141.253 19.2074 141.584C19.7727 141.915 20.194 142.331 20.4714 142.832V141.232H21.9434V150H20.4714V148.368C20.1834 148.88 19.7514 149.307 19.1754 149.648C18.61 149.979 17.9487 150.144 17.1914 150.144C16.4127 150.144 15.7087 149.952 15.0794 149.568C14.45 149.184 13.954 148.645 13.5914 147.952C13.2287 147.259 13.0474 146.469 13.0474 145.584ZM20.4714 145.6C20.4714 144.939 20.338 144.363 20.0714 143.872C19.8047 143.381 19.442 143.008 18.9834 142.752C18.5354 142.485 18.0394 142.352 17.4954 142.352C16.9514 142.352 16.4554 142.48 16.0074 142.736C15.5594 142.992 15.202 143.365 14.9354 143.856C14.6687 144.347 14.5354 144.923 14.5354 145.584C14.5354 146.256 14.6687 146.843 14.9354 147.344C15.202 147.835 15.5594 148.213 16.0074 148.48C16.4554 148.736 16.9514 148.864 17.4954 148.864C18.0394 148.864 18.5354 148.736 18.9834 148.48C19.442 148.213 19.8047 147.835 20.0714 147.344C20.338 146.843 20.4714 146.261 20.4714 145.6ZM25.8599 142.656C26.1159 142.155 26.4785 141.765 26.9479 141.488C27.4279 141.211 28.0092 141.072 28.6919 141.072V142.576H28.3079C26.6759 142.576 25.8599 143.461 25.8599 145.232V150H24.4039V141.232H25.8599V142.656ZM32.1486 142.432V147.6C32.1486 148.027 32.2393 148.331 32.4206 148.512C32.602 148.683 32.9166 148.768 33.3646 148.768H34.4366V150H33.1246C32.314 150 31.706 149.813 31.3006 149.44C30.8953 149.067 30.6926 148.453 30.6926 147.6V142.432H29.5566V141.232H30.6926V139.024H32.1486V141.232H34.4366V142.432H32.1486Z" fill="#FAFAFA"/>
<path d="M15.248 178.848L12.016 190H10.384L7.792 181.024L5.104 190L3.488 190.016L0.368 178.848H1.92L4.352 188.304L7.04 178.848H8.672L11.232 188.272L13.68 178.848H15.248ZM17.5934 179.808C17.316 179.808 17.0814 179.712 16.8894 179.52C16.6974 179.328 16.6014 179.093 16.6014 178.816C16.6014 178.539 16.6974 178.304 16.8894 178.112C17.0814 177.92 17.316 177.824 17.5934 177.824C17.86 177.824 18.084 177.92 18.2654 178.112C18.4574 178.304 18.5534 178.539 18.5534 178.816C18.5534 179.093 18.4574 179.328 18.2654 179.52C18.084 179.712 17.86 179.808 17.5934 179.808ZM18.2974 181.232V190H16.8414V181.232H18.2974ZM23.8829 190.144C23.2109 190.144 22.6082 190.032 22.0749 189.808C21.5415 189.573 21.1202 189.253 20.8109 188.848C20.5015 188.432 20.3309 187.957 20.2989 187.424H21.8029C21.8455 187.861 22.0482 188.219 22.4109 188.496C22.7842 188.773 23.2695 188.912 23.8669 188.912C24.4215 188.912 24.8589 188.789 25.1789 188.544C25.4989 188.299 25.6589 187.989 25.6589 187.616C25.6589 187.232 25.4882 186.949 25.1469 186.768C24.8055 186.576 24.2775 186.389 23.5629 186.208C22.9122 186.037 22.3789 185.867 21.9629 185.696C21.5575 185.515 21.2055 185.253 20.9069 184.912C20.6189 184.56 20.4749 184.101 20.4749 183.536C20.4749 183.088 20.6082 182.677 20.8749 182.304C21.1415 181.931 21.5202 181.637 22.0109 181.424C22.5015 181.2 23.0615 181.088 23.6909 181.088C24.6615 181.088 25.4455 181.333 26.0429 181.824C26.6402 182.315 26.9602 182.987 27.0029 183.84H25.5469C25.5149 183.381 25.3282 183.013 24.9869 182.736C24.6562 182.459 24.2082 182.32 23.6429 182.32C23.1202 182.32 22.7042 182.432 22.3949 182.656C22.0855 182.88 21.9309 183.173 21.9309 183.536C21.9309 183.824 22.0215 184.064 22.2029 184.256C22.3949 184.437 22.6295 184.587 22.9069 184.704C23.1949 184.811 23.5895 184.933 24.0909 185.072C24.7202 185.243 25.2322 185.413 25.6269 185.584C26.0215 185.744 26.3575 185.989 26.6349 186.32C26.9229 186.651 27.0722 187.083 27.0829 187.616C27.0829 188.096 26.9495 188.528 26.6829 188.912C26.4162 189.296 26.0375 189.6 25.5469 189.824C25.0669 190.037 24.5122 190.144 23.8829 190.144ZM33.4903 181.072C34.1516 181.072 34.7489 181.216 35.2823 181.504C35.8156 181.781 36.2316 182.203 36.5303 182.768C36.8396 183.333 36.9943 184.021 36.9943 184.832V190H35.5543V185.04C35.5543 184.165 35.3356 183.499 34.8983 183.04C34.4609 182.571 33.8636 182.336 33.1063 182.336C32.3383 182.336 31.7249 182.576 31.2663 183.056C30.8183 183.536 30.5943 184.235 30.5943 185.152V190H29.1383V178.16H30.5943V182.48C30.8823 182.032 31.2769 181.685 31.7783 181.44C32.2903 181.195 32.8609 181.072 33.4903 181.072ZM40.8286 178.16V190H39.3726V178.16H40.8286ZM44.0621 179.808C43.7848 179.808 43.5501 179.712 43.3581 179.52C43.1661 179.328 43.0701 179.093 43.0701 178.816C43.0701 178.539 43.1661 178.304 43.3581 178.112C43.5501 177.92 43.7848 177.824 44.0621 177.824C44.3288 177.824 44.5528 177.92 44.7341 178.112C44.9261 178.304 45.0221 178.539 45.0221 178.816C45.0221 179.093 44.9261 179.328 44.7341 179.52C44.5528 179.712 44.3288 179.808 44.0621 179.808ZM44.7661 181.232V190H43.3101V181.232H44.7661ZM50.3516 190.144C49.6796 190.144 49.077 190.032 48.5436 189.808C48.0103 189.573 47.589 189.253 47.2796 188.848C46.9703 188.432 46.7996 187.957 46.7676 187.424H48.2716C48.3143 187.861 48.517 188.219 48.8796 188.496C49.253 188.773 49.7383 188.912 50.3356 188.912C50.8903 188.912 51.3276 188.789 51.6476 188.544C51.9676 188.299 52.1276 187.989 52.1276 187.616C52.1276 187.232 51.957 186.949 51.6156 186.768C51.2743 186.576 50.7463 186.389 50.0316 186.208C49.381 186.037 48.8476 185.867 48.4316 185.696C48.0263 185.515 47.6743 185.253 47.3756 184.912C47.0876 184.56 46.9436 184.101 46.9436 183.536C46.9436 183.088 47.077 182.677 47.3436 182.304C47.6103 181.931 47.989 181.637 48.4796 181.424C48.9703 181.2 49.5303 181.088 50.1596 181.088C51.1303 181.088 51.9143 181.333 52.5116 181.824C53.109 182.315 53.429 182.987 53.4716 183.84H52.0156C51.9836 183.381 51.797 183.013 51.4556 182.736C51.125 182.459 50.677 182.32 50.1116 182.32C49.589 182.32 49.173 182.432 48.8636 182.656C48.5543 182.88 48.3996 183.173 48.3996 183.536C48.3996 183.824 48.4903 184.064 48.6716 184.256C48.8636 184.437 49.0983 184.587 49.3756 184.704C49.6636 184.811 50.0583 184.933 50.5596 185.072C51.189 185.243 51.701 185.413 52.0956 185.584C52.4903 185.744 52.8263 185.989 53.1036 186.32C53.3916 186.651 53.541 187.083 53.5516 187.616C53.5516 188.096 53.4183 188.528 53.1516 188.912C52.885 189.296 52.5063 189.6 52.0156 189.824C51.5356 190.037 50.981 190.144 50.3516 190.144ZM57.383 182.432V187.6C57.383 188.027 57.4737 188.331 57.655 188.512C57.8363 188.683 58.151 188.768 58.599 188.768H59.671V190H58.359C57.5483 190 56.9403 189.813 56.535 189.44C56.1297 189.067 55.927 188.453 55.927 187.6V182.432H54.791V181.232H55.927V179.024H57.383V181.232H59.671V182.432H57.383Z" fill="#FAFAFA"/>
<path d="M4.768 230.112C4.032 230.112 3.37067 229.984 2.784 229.728C2.208 229.461 1.75467 229.099 1.424 228.64C1.09333 228.171 0.922667 227.632 0.912 227.024H2.464C2.51733 227.547 2.73067 227.989 3.104 228.352C3.488 228.704 4.04267 228.88 4.768 228.88C5.46133 228.88 6.00533 228.709 6.4 228.368C6.80533 228.016 7.008 227.568 7.008 227.024C7.008 226.597 6.89067 226.251 6.656 225.984C6.42133 225.717 6.128 225.515 5.776 225.376C5.424 225.237 4.94933 225.088 4.352 224.928C3.616 224.736 3.024 224.544 2.576 224.352C2.13867 224.16 1.76 223.861 1.44 223.456C1.13067 223.04 0.976 222.485 0.976 221.792C0.976 221.184 1.13067 220.645 1.44 220.176C1.74933 219.707 2.18133 219.344 2.736 219.088C3.30133 218.832 3.94667 218.704 4.672 218.704C5.71733 218.704 6.57067 218.965 7.232 219.488C7.904 220.011 8.28267 220.704 8.368 221.568H6.768C6.71467 221.141 6.49067 220.768 6.096 220.448C5.70133 220.117 5.17867 219.952 4.528 219.952C3.92 219.952 3.424 220.112 3.04 220.432C2.656 220.741 2.464 221.179 2.464 221.744C2.464 222.149 2.576 222.48 2.8 222.736C3.03467 222.992 3.31733 223.189 3.648 223.328C3.98933 223.456 4.464 223.605 5.072 223.776C5.808 223.979 6.4 224.181 6.848 224.384C7.296 224.576 7.68 224.88 8 225.296C8.32 225.701 8.48 226.256 8.48 226.96C8.48 227.504 8.336 228.016 8.048 228.496C7.76 228.976 7.33333 229.365 6.768 229.664C6.20267 229.963 5.536 230.112 4.768 230.112ZM14.9746 221.072C15.636 221.072 16.2333 221.216 16.7666 221.504C17.3 221.781 17.716 222.203 18.0146 222.768C18.324 223.333 18.4786 224.021 18.4786 224.832V230H17.0386V225.04C17.0386 224.165 16.82 223.499 16.3826 223.04C15.9453 222.571 15.348 222.336 14.5906 222.336C13.8226 222.336 13.2093 222.576 12.7506 223.056C12.3026 223.536 12.0786 224.235 12.0786 225.152V230H10.6226V218.16H12.0786V222.48C12.3666 222.032 12.7613 221.685 13.2626 221.44C13.7746 221.195 14.3453 221.072 14.9746 221.072ZM24.681 230.144C23.8597 230.144 23.113 229.957 22.441 229.584C21.7797 229.211 21.257 228.683 20.873 228C20.4997 227.307 20.313 226.507 20.313 225.6C20.313 224.704 20.505 223.915 20.889 223.232C21.2837 222.539 21.817 222.011 22.489 221.648C23.161 221.275 23.913 221.088 24.745 221.088C25.577 221.088 26.329 221.275 27.001 221.648C27.673 222.011 28.201 222.533 28.585 223.216C28.9797 223.899 29.177 224.693 29.177 225.6C29.177 226.507 28.9743 227.307 28.569 228C28.1743 228.683 27.6357 229.211 26.953 229.584C26.2703 229.957 25.513 230.144 24.681 230.144ZM24.681 228.864C25.2037 228.864 25.6943 228.741 26.153 228.496C26.6117 228.251 26.9797 227.883 27.257 227.392C27.545 226.901 27.689 226.304 27.689 225.6C27.689 224.896 27.5503 224.299 27.273 223.808C26.9957 223.317 26.633 222.955 26.185 222.72C25.737 222.475 25.2517 222.352 24.729 222.352C24.1957 222.352 23.705 222.475 23.257 222.72C22.8197 222.955 22.4677 223.317 22.201 223.808C21.9343 224.299 21.801 224.896 21.801 225.6C21.801 226.315 21.929 226.917 22.185 227.408C22.4517 227.899 22.8037 228.267 23.241 228.512C23.6783 228.747 24.1583 228.864 24.681 228.864ZM32.5474 222.848C32.8354 222.347 33.262 221.931 33.8274 221.6C34.4034 221.259 35.07 221.088 35.8274 221.088C36.606 221.088 37.31 221.275 37.9394 221.648C38.5794 222.021 39.0807 222.549 39.4434 223.232C39.806 223.904 39.9874 224.688 39.9874 225.584C39.9874 226.469 39.806 227.259 39.4434 227.952C39.0807 228.645 38.5794 229.184 37.9394 229.568C37.31 229.952 36.606 230.144 35.8274 230.144C35.0807 230.144 34.4194 229.979 33.8434 229.648C33.278 229.307 32.846 228.885 32.5474 228.384V234.16H31.0914V221.232H32.5474V222.848ZM38.4994 225.584C38.4994 224.923 38.366 224.347 38.0994 223.856C37.8327 223.365 37.47 222.992 37.0114 222.736C36.5634 222.48 36.0674 222.352 35.5234 222.352C34.99 222.352 34.494 222.485 34.0354 222.752C33.5874 223.008 33.2247 223.387 32.9474 223.888C32.6807 224.379 32.5474 224.949 32.5474 225.6C32.5474 226.261 32.6807 226.843 32.9474 227.344C33.2247 227.835 33.5874 228.213 34.0354 228.48C34.494 228.736 34.99 228.864 35.5234 228.864C36.0674 228.864 36.5634 228.736 37.0114 228.48C37.47 228.213 37.8327 227.835 38.0994 227.344C38.366 226.843 38.4994 226.256 38.4994 225.584Z" fill="#FAFAFA"/>
</svg>
